<?xml version="1.0" encoding="UTF-8"?>
<svg width="800px" height="600px" viewBox="0 0 800 600" version="1.1" xmlns="http://www.w3.org/2000/svg">
    <g stroke="none" stroke-width="1" fill="none" fill-rule="evenodd">
        <rect fill="#FFFFFF" x="0" y="0" width="800" height="600"/>
        <circle fill="#E3F2FD" cx="400" cy="300" r="200"/>
        <path d="M400,100 C500,100 600,200 600,300 C600,400 500,500 400,500 C300,500 200,400 200,300 C200,200 300,100 400,100 Z" fill="#90CAF9"/>
        <path d="M400,150 C466.5,150 520,203.5 520,270 C520,336.5 466.5,390 400,390 C333.5,390 280,336.5 280,270 C280,203.5 333.5,150 400,150 Z" fill="#42A5F5"/>
        <path d="M400,200 C433.1,200 460,226.9 460,260 C460,293.1 433.1,320 400,320 C366.9,320 340,293.1 340,260 C340,226.9 366.9,200 400,200 Z" fill="#2196F3"/>
    </g>
</svg> 